<svg width="680" height="790" viewBox="0 0 680 790" xmlns="http://www.w3.org/2000/svg" font-family="Helvetica, Arial, sans-serif">
<rect x="0" y="0" width="680" height="790" fill="#FFFFFF"/>
<text x="30" y="30" font-size="15" font-weight="bold" fill="#2C2C2A">MTCA accounting data product — model and lineage (mock = ASA reference impl.)</text>
<text x="30" y="62" font-size="13" fill="#5F5E5A">silver — legacy grain</text>
<text x="262" y="62" font-size="13" fill="#5F5E5A">intermediate — joins once</text>
<text x="468" y="62" font-size="13" fill="#5F5E5A">sta_v1 — published contract</text>
<defs><marker id="a2" markerWidth="8" markerHeight="6" refX="7" refY="3" orient="auto"><polygon points="0 0, 8 3, 0 6" fill="#888780"/></marker></defs>

<rect x="30" y="96" width="190" height="44" rx="4" fill="#F1EFE8" stroke="#5F5E5A"/><text x="42" y="114" font-size="12" font-weight="bold" fill="#444441">silver_taxpayer</text><text x="42" y="131" font-size="11" fill="#5F5E5A">tin · tpform · status</text>
<rect x="30" y="168" width="190" height="44" rx="4" fill="#F1EFE8" stroke="#5F5E5A"/><text x="42" y="186" font-size="12" font-weight="bold" fill="#444441">silver_assessments</text><text x="42" y="203" font-size="11" fill="#5F5E5A">kind · amount · due_date</text>
<rect x="30" y="240" width="190" height="44" rx="4" fill="#F1EFE8" stroke="#5F5E5A"/><text x="42" y="258" font-size="12" font-weight="bold" fill="#444441">silver_transactions</text><text x="42" y="275" font-size="11" fill="#5F5E5A">trcd · sbcd · signed amount</text>
<rect x="30" y="312" width="190" height="44" rx="4" fill="#F1EFE8" stroke="#5F5E5A"/><text x="42" y="330" font-size="12" font-weight="bold" fill="#444441">silver_receipts</text><text x="42" y="347" font-size="11" fill="#5F5E5A">rcno · ptyp · stus 8/9 excluded</text>
<rect x="30" y="384" width="190" height="44" rx="4" fill="#F1EFE8" stroke="#5F5E5A"/><text x="42" y="402" font-size="12" font-weight="bold" fill="#444441">silver_objections</text><text x="42" y="419" font-size="11" fill="#5F5E5A">OPEN drives disputed amount</text>
<rect x="30" y="456" width="190" height="44" rx="4" fill="#F1EFE8" stroke="#5F5E5A"/><text x="42" y="474" font-size="12" font-weight="bold" fill="#444441">silver_suspense</text><text x="42" y="491" font-size="11" fill="#5F5E5A">credit · unidentified · held</text>
<rect x="30" y="528" width="190" height="44" rx="4" fill="#EEEDFE" stroke="#534AB7"/><text x="42" y="546" font-size="12" font-weight="bold" fill="#3C3489">asa_trcd_map</text><text x="42" y="563" font-size="11" fill="#534AB7">legacy code → P/I/C + confidence</text>
<rect x="30" y="626" width="190" height="44" rx="4" fill="#FAECE7" stroke="#993C1D"/><text x="42" y="644" font-size="12" font-weight="bold" fill="#712B13">fact_case_outcomes</text><text x="42" y="661" font-size="11" fill="#993C1D">writeback · idempotent key</text>

<rect x="262" y="96" width="176" height="58" rx="4" fill="#EEEDFE" stroke="#534AB7"/><text x="274" y="116" font-size="12" font-weight="bold" fill="#3C3489">int_taxpayer__master</text><text x="274" y="132" font-size="11" fill="#534AB7">grain: TIN · golden record</text><text x="274" y="146" font-size="11" fill="#534AB7">disputes · credits rollup</text>
<rect x="262" y="240" width="176" height="58" rx="4" fill="#EEEDFE" stroke="#534AB7"/><text x="274" y="260" font-size="12" font-weight="bold" fill="#3C3489">int_accounting__postings</text><text x="274" y="276" font-size="11" fill="#534AB7">grain: posting · semantics</text><text x="274" y="290" font-size="11" fill="#534AB7">resolved via map</text>
<rect x="262" y="350" width="176" height="58" rx="4" fill="#EEEDFE" stroke="#534AB7"/><text x="274" y="370" font-size="12" font-weight="bold" fill="#3C3489">int_accounting__</text><text x="274" y="384" font-size="12" font-weight="bold" fill="#3C3489">period_balances</text><text x="274" y="400" font-size="11" fill="#534AB7">TIN × tax × year · PA/IA/PCA</text>

<rect x="468" y="82" width="192" height="40" rx="4" fill="#E1F5EE" stroke="#0F6E56"/><text x="480" y="99" font-size="12" font-weight="bold" fill="#085041">taxpayer_360</text><text x="480" y="115" font-size="11" fill="#0F6E56">golden record + rollups</text>
<rect x="468" y="146" width="192" height="40" rx="4" fill="#E1F5EE" stroke="#0F6E56"/><text x="480" y="163" font-size="12" font-weight="bold" fill="#085041">account_transactions</text><text x="480" y="179" font-size="11" fill="#0F6E56">L3 · running balance</text>
<rect x="468" y="210" width="192" height="40" rx="4" fill="#E1F5EE" stroke="#0F6E56"/><text x="480" y="227" font-size="12" font-weight="bold" fill="#085041">taxpayer_balances</text><text x="480" y="243" font-size="11" fill="#0F6E56">L2 · enforceable · confidence</text>
<rect x="468" y="274" width="192" height="40" rx="4" fill="#E1F5EE" stroke="#0F6E56"/><text x="480" y="291" font-size="12" font-weight="bold" fill="#085041">debt_balances</text><text x="480" y="307" font-size="11" fill="#0F6E56">ageing bands · C1–C6</text>
<rect x="468" y="338" width="192" height="40" rx="4" fill="#E1F5EE" stroke="#0F6E56"/><text x="480" y="355" font-size="12" font-weight="bold" fill="#085041">debt_priority_queue</text><text x="480" y="371" font-size="11" fill="#0F6E56">per TIN · risk_score NULL (SAS)</text>
<rect x="468" y="402" width="192" height="40" rx="4" fill="#E1F5EE" stroke="#0F6E56"/><text x="480" y="419" font-size="12" font-weight="bold" fill="#085041">assessment_register</text><text x="480" y="435" font-size="11" fill="#0F6E56">self / authority / default</text>
<rect x="468" y="466" width="192" height="40" rx="4" fill="#E1F5EE" stroke="#0F6E56"/><text x="480" y="483" font-size="12" font-weight="bold" fill="#085041">payment_history</text><text x="480" y="499" font-size="11" fill="#0F6E56">identified / unidentified</text>
<rect x="468" y="530" width="192" height="40" rx="4" fill="#E1F5EE" stroke="#0F6E56"/><text x="480" y="547" font-size="12" font-weight="bold" fill="#085041">open_credits_suspense</text><text x="480" y="563" font-size="11" fill="#0F6E56">credit · suspense by kind</text>
<rect x="468" y="626" width="192" height="40" rx="4" fill="#FAECE7" stroke="#993C1D"/><text x="480" y="643" font-size="12" font-weight="bold" fill="#712B13">case_outcomes</text><text x="480" y="659" font-size="11" fill="#993C1D">deduplicated (FINAL)</text>

<line x1="220" y1="118" x2="262" y2="122" stroke="#888780" stroke-width="1.3" marker-end="url(#a2)"/>
<line x1="220" y1="182" x2="262" y2="138" stroke="#888780" stroke-width="1.3" marker-end="url(#a2)"/>
<line x1="220" y1="399" x2="262" y2="146" stroke="#888780" stroke-width="1" marker-end="url(#a2)"/>
<line x1="220" y1="471" x2="262" y2="152" stroke="#888780" stroke-width="1" marker-end="url(#a2)"/>
<line x1="220" y1="262" x2="262" y2="266" stroke="#888780" stroke-width="1.3" marker-end="url(#a2)"/>
<line x1="220" y1="544" x2="262" y2="286" stroke="#888780" stroke-width="1.3" marker-end="url(#a2)"/>
<line x1="350" y1="298" x2="350" y2="350" stroke="#888780" stroke-width="1.3" marker-end="url(#a2)"/>
<line x1="220" y1="194" x2="262" y2="364" stroke="#888780" stroke-width="1" marker-end="url(#a2)"/>
<line x1="220" y1="406" x2="262" y2="384" stroke="#888780" stroke-width="1" marker-end="url(#a2)"/>
<line x1="438" y1="125" x2="468" y2="104" stroke="#888780" stroke-width="1.3" marker-end="url(#a2)"/>
<line x1="438" y1="262" x2="468" y2="166" stroke="#888780" stroke-width="1.3" marker-end="url(#a2)"/>
<line x1="438" y1="274" x2="468" y2="224" stroke="#888780" stroke-width="1.3" marker-end="url(#a2)"/>
<line x1="438" y1="372" x2="468" y2="234" stroke="#888780" stroke-width="1.3" marker-end="url(#a2)"/>
<line x1="438" y1="384" x2="468" y2="292" stroke="#888780" stroke-width="1.3" marker-end="url(#a2)"/>
<line x1="560" y1="314" x2="560" y2="338" stroke="#888780" stroke-width="1.3" marker-end="url(#a2)"/>
<path d="M120 212 L120 230 L250 230 L250 422 L468 422" fill="none" stroke="#B4B2A9" stroke-width="1" marker-end="url(#a2)"/>
<path d="M220 342 L240 342 L240 486 L468 486" fill="none" stroke="#B4B2A9" stroke-width="1" marker-end="url(#a2)"/>
<path d="M220 486 L232 486 L232 550 L468 550" fill="none" stroke="#B4B2A9" stroke-width="1" marker-end="url(#a2)"/>
<line x1="220" y1="646" x2="468" y2="646" stroke="#D85A30" stroke-width="1.3" stroke-dasharray="5 4" marker-end="url(#a2)"/>
<text x="330" y="638" font-size="11" fill="#993C1D" text-anchor="middle">FINAL dedup</text>

<text x="30" y="706" font-size="11" fill="#5F5E5A">gray = silver (legacy-shaped staging) · purple = intermediate + ASA map · teal = published views (Joget reads, sta_reader/JDBC)</text>
<text x="30" y="724" font-size="11" fill="#5F5E5A">coral = writeback path (Joget inserts, writeback_api) · thin gray elbows = pass-through lineage · invariant suite guards every load</text>
<text x="30" y="742" font-size="11" fill="#888780">grains: postings = 1 row/posting · period_balances = TIN × tax × year · master/queue = 1 row/TIN · L1 = Σ L2 per TIN</text>
<text x="30" y="770" font-size="10" fill="#888780">MTCA · GOLD-MOCK-DESIGN v1.1 · 11 June 2026 · Module 05 design authority · BR-DM-003 C-bands · D-SAD-11/12 (ASA)</text>
</svg>
