<svg viewBox="0 0 1440 960" xmlns="http://www.w3.org/2000/svg" font-family="Segoe UI, Helvetica, Arial, sans-serif" role="img" aria-labelledby="t d">
<title id="t">Gold-layer mart (sta_v1) consumed by DMBB</title>
<desc id="d">The ClickHouse sta_v1 STA product, built on the mtca_ors medallion, and the three views DMBB reads plus the one it writes.</desc>
<defs>
  <marker id="aS" markerWidth="11" markerHeight="11" refX="8" refY="5.5" orient="auto"><path d="M0,1 L9,5.5 L0,10 Z" fill="#2E6F95"/></marker>
  <marker id="aA" markerWidth="11" markerHeight="11" refX="8" refY="5.5" orient="auto"><path d="M0,1 L9,5.5 L0,10 Z" fill="#C8881E"/></marker>
  <marker id="aN" markerWidth="10" markerHeight="10" refX="7" refY="5" orient="auto"><path d="M0,1 L8,5 L0,9 Z" fill="#9AAEBF"/></marker>
</defs>
<rect x="0" y="0" width="1440" height="960" fill="#FFFFFF"/>

<!-- ===== Title ===== -->
<text x="40" y="46" font-size="25" font-weight="700" fill="#0F2A43">Gold-Layer Mart — the data product DMBB consumes today</text>
<text x="40" y="73" font-size="15" fill="#5B6B7B">ClickHouse  &#183;  <tspan font-weight="600" fill="#2E6F95">sta_v1</tspan> (Single Taxpayer Account)  &#183;  read-only via <tspan font-weight="600">sta_reader</tspan>  &#183;  built on the <tspan font-weight="600">mtca_ors</tspan> medallion</text>
<!-- legend -->
<rect x="1006" y="30" width="16" height="16" rx="3" fill="#E2ECF5" stroke="#2E6F95" stroke-width="1.5"/><text x="1028" y="43" font-size="13" fill="#1C2733">Read by DMBB</text>
<rect x="1140" y="30" width="16" height="16" rx="3" fill="#FBF1DF" stroke="#C8881E" stroke-width="1.5"/><text x="1162" y="43" font-size="13" fill="#1C2733">Write-back</text>
<rect x="1268" y="30" width="16" height="16" rx="3" fill="#F4F8FC" stroke="#D7E2EC" stroke-width="1.5"/><text x="1290" y="43" font-size="13" fill="#1C2733">Not used</text>

<!-- ===== Tier 1 · provenance ribbon ===== -->
<text x="40" y="108" font-size="12" font-weight="700" letter-spacing="2" fill="#2E6F95">HOW THE MART IS BUILT  —  MEDALLION PROVENANCE</text>
<!-- pill 1 -->
<rect x="40" y="120" width="300" height="62" rx="8" fill="#F4F8FC" stroke="#D7E2EC"/>
<text x="58" y="148" font-size="16" font-weight="700" fill="#0F2A43">Legacy ORS</text>
<text x="58" y="168" font-size="12.5" fill="#5B6B7B">9 Informix databases</text>
<line x1="344" y1="151" x2="372" y2="151" stroke="#9AAEBF" stroke-width="2" marker-end="url(#aN)"/>
<!-- pill 2 -->
<rect x="376" y="120" width="300" height="62" rx="8" fill="#F4F8FC" stroke="#D7E2EC"/>
<text x="394" y="148" font-size="16" font-weight="700" fill="#0F2A43">Silver</text>
<text x="394" y="168" font-size="12.5" fill="#5B6B7B">mtca_ors &#183; legacy-grain staging</text>
<line x1="680" y1="151" x2="708" y2="151" stroke="#9AAEBF" stroke-width="2" marker-end="url(#aN)"/>
<!-- pill 3 -->
<rect x="712" y="120" width="300" height="62" rx="8" fill="#F4F8FC" stroke="#D7E2EC"/>
<text x="730" y="148" font-size="16" font-weight="700" fill="#0F2A43">Intermediate</text>
<text x="730" y="168" font-size="12.5" fill="#5B6B7B">mtca_ors &#183; resolved joins</text>
<line x1="1016" y1="151" x2="1044" y2="151" stroke="#9AAEBF" stroke-width="2" marker-end="url(#aN)"/>
<!-- pill 4 GOLD -->
<rect x="1048" y="120" width="300" height="62" rx="8" fill="#0F2A43"/>
<rect x="1048" y="120" width="300" height="6" rx="3" fill="#C8881E"/>
<text x="1066" y="149" font-size="16" font-weight="700" fill="#FFFFFF">GOLD &#183; sta_v1</text>
<text x="1066" y="169" font-size="12.5" fill="#9FC0DC">published STA product (the contract)</text>

<!-- ===== Tier 2 · gold mart box ===== -->
<rect x="40" y="214" width="720" height="436" rx="10" fill="#FFFDF6" stroke="#C8881E" stroke-width="1.5"/>
<text x="64" y="246" font-size="17" font-weight="700" fill="#0F2A43">Gold mart &#183; <tspan fill="#2E6F95">sta_v1</tspan> — 9 published views</text>
<text x="64" y="266" font-size="12.5" fill="#5B6B7B">each view carries <tspan font-weight="600">as_of</tspan> (staleness) and per-row <tspan font-weight="600">asa_confidence</tspan></text>

<!-- chips: 3x3 grid. col x: 64, 293, 522 ; row y: 286, 400, 514 ; w213 h96 -->
<!-- row0 -->
<g>
<rect x="64" y="286" width="213" height="96" rx="7" fill="#F4F8FC" stroke="#D7E2EC"/>
<text x="80" y="320" font-size="14.5" font-weight="700" fill="#33414F">taxpayer_360</text>
<text x="80" y="343" font-size="12" fill="#5B6B7B">registry + rollups</text>
</g>
<g>
<rect x="293" y="286" width="213" height="96" rx="7" fill="#F4F8FC" stroke="#D7E2EC"/>
<text x="309" y="320" font-size="14.5" font-weight="700" fill="#33414F">account_transactions</text>
<text x="309" y="343" font-size="12" fill="#5B6B7B">L3 + running balance</text>
</g>
<g>
<rect x="522" y="286" width="213" height="96" rx="7" fill="#E2ECF5" stroke="#2E6F95" stroke-width="1.8"/>
<rect x="522" y="286" width="6" height="96" rx="3" fill="#2E6F95"/>
<text x="540" y="318" font-size="14.5" font-weight="700" fill="#0F2A43">taxpayer_balances</text>
<text x="540" y="340" font-size="12" fill="#34536B">L2 &#183; enforceable balance</text>
<text x="540" y="358" font-size="11" fill="#2E6F95">debit/credit &#183; PA/IA/PCA</text>
</g>
<!-- row1 -->
<g>
<rect x="64" y="400" width="213" height="96" rx="7" fill="#F4F8FC" stroke="#D7E2EC"/>
<text x="80" y="434" font-size="14.5" font-weight="700" fill="#33414F">payment_history</text>
<text x="80" y="457" font-size="12" fill="#5B6B7B">receipts</text>
</g>
<g>
<rect x="293" y="400" width="213" height="96" rx="7" fill="#F4F8FC" stroke="#D7E2EC"/>
<text x="309" y="434" font-size="14.5" font-weight="700" fill="#33414F">assessment_register</text>
<text x="309" y="457" font-size="12" fill="#5B6B7B">charges raised</text>
</g>
<g>
<rect x="522" y="400" width="213" height="96" rx="7" fill="#E2ECF5" stroke="#2E6F95" stroke-width="1.8"/>
<rect x="522" y="400" width="6" height="96" rx="3" fill="#2E6F95"/>
<text x="540" y="432" font-size="14.5" font-weight="700" fill="#0F2A43">debt_priority_queue</text>
<text x="540" y="454" font-size="12" fill="#34536B">consolidated debtor</text>
<text x="540" y="472" font-size="11" fill="#2E6F95">debt_category C1&#8211;C6 &#183; risk_score</text>
</g>
<!-- row2 -->
<g>
<rect x="64" y="514" width="213" height="96" rx="7" fill="#F4F8FC" stroke="#D7E2EC"/>
<text x="80" y="548" font-size="14.5" font-weight="700" fill="#33414F">open_credits_suspense</text>
<text x="80" y="571" font-size="12" fill="#5B6B7B">credits &amp; suspense</text>
</g>
<g>
<rect x="293" y="514" width="213" height="96" rx="7" fill="#F4F8FC" stroke="#D7E2EC"/>
<text x="309" y="548" font-size="14.5" font-weight="700" fill="#33414F">debt_balances</text>
<text x="309" y="571" font-size="12" fill="#5B6B7B">TIN&#215;tax&#215;year debt lines</text>
<rect x="293" y="514" width="6" height="96" rx="3" fill="#2E6F95"/>
<rect x="293" y="514" width="213" height="96" rx="7" fill="none" stroke="#2E6F95" stroke-width="1.8"/>
</g>
<g>
<rect x="522" y="514" width="213" height="96" rx="7" fill="#FBF1DF" stroke="#C8881E" stroke-width="1.8"/>
<rect x="522" y="514" width="6" height="96" rx="3" fill="#C8881E"/>
<text x="540" y="546" font-size="14.5" font-weight="700" fill="#0F2A43">case_outcomes</text>
<text x="540" y="568" font-size="12" fill="#6B5212">write-back face</text>
<text x="540" y="586" font-size="11" fill="#A9761A">over fact_case_outcomes</text>
</g>

<!-- ===== connectors (gap 760..850) ===== -->
<text x="805" y="332" font-size="11.5" font-weight="700" fill="#2E6F95" text-anchor="middle">SELECT</text>
<line x1="740" y1="350" x2="846" y2="350" stroke="#2E6F95" stroke-width="2.4" marker-end="url(#aS)"/>
<text x="805" y="372" font-size="10.5" fill="#5B6B7B" text-anchor="middle">sta_reader</text>

<text x="805" y="556" font-size="11.5" font-weight="700" fill="#C8881E" text-anchor="middle">INSERT</text>
<line x1="846" y1="574" x2="740" y2="574" stroke="#C8881E" stroke-width="2.4" marker-end="url(#aA)"/>
<text x="805" y="596" font-size="10.5" fill="#5B6B7B" text-anchor="middle">writeback_api</text>

<!-- ===== Tier 2 · DMBB consumers (x850 w510) ===== -->
<text x="850" y="246" font-size="17" font-weight="700" fill="#0F2A43">What DMBB assumes today</text>
<text x="850" y="266" font-size="12.5" fill="#5B6B7B">JdbcGoldGateway &#183; ClickHouse JDBC, HTTP_URL_CONNECTION</text>

<!-- Card A: F03 -->
<rect x="850" y="282" width="510" height="150" rx="9" fill="#FFFFFF" stroke="#D7E2EC" stroke-width="1.2"/>
<rect x="850" y="282" width="510" height="6" rx="3" fill="#2E6F95"/>
<text x="870" y="312" font-size="15" font-weight="700" fill="#0F2A43">F03 &#183; Debt Identification</text>
<text x="1340" y="312" font-size="11.5" fill="#5B6B7B" text-anchor="end">GoldMartScanner</text>
<text x="870" y="338" font-size="12.5" fill="#1C2733"><tspan font-weight="700" fill="#2E6F95">debt_priority_queue</tspan>  &#8212; scan(total_enforceable &#8805; min)</text>
<text x="884" y="357" font-size="11.5" fill="#5B6B7B">tin &#183; debt_category &#183; total_enforceable &#183; oldest_debt_age_days &#183; tax_types_involved</text>
<text x="870" y="382" font-size="12.5" fill="#1C2733"><tspan font-weight="700" fill="#2E6F95">debt_balances</tspan>  &#8212; lines(tin)</text>
<text x="884" y="401" font-size="11.5" fill="#5B6B7B">tax_type &#183; yofa &#183; balance &#183; disputed_amount &#183; enforceable_amount &#183; as_of</text>
<text x="870" y="423" font-size="11" font-style="italic" fill="#2F7D5C">&#8594; creates DM debt cases above the consolidated threshold</text>

<!-- Card B: F09 -->
<rect x="850" y="444" width="510" height="116" rx="9" fill="#FFFFFF" stroke="#D7E2EC" stroke-width="1.2"/>
<rect x="850" y="444" width="510" height="6" rx="3" fill="#2E6F95"/>
<text x="870" y="474" font-size="15" font-weight="700" fill="#0F2A43">F09 &#183; Write-off &amp; taxpayer profile</text>
<text x="1340" y="474" font-size="11.5" fill="#5B6B7B" text-anchor="end">GoldMartClient</text>
<text x="870" y="500" font-size="12.5" fill="#1C2733"><tspan font-weight="700" fill="#2E6F95">taxpayer_balances</tspan>  &#8212; read(tin)</text>
<text x="884" y="519" font-size="11.5" fill="#5B6B7B">&#931; enforceable_balance &#183; min(asa_confidence) &#183; max(as_of)</text>
<text x="870" y="543" font-size="12.5" fill="#1C2733"><tspan font-weight="700" fill="#2E6F95">debt_priority_queue</tspan>  &#8212; debt_category</text>

<!-- Card C: writeback -->
<rect x="850" y="572" width="510" height="78" rx="9" fill="#FFFDF6" stroke="#C8881E" stroke-width="1.2"/>
<rect x="850" y="572" width="510" height="6" rx="3" fill="#C8881E"/>
<text x="870" y="601" font-size="15" font-weight="700" fill="#0F2A43">Write-back &#183; case outcomes</text>
<text x="1340" y="601" font-size="11.5" fill="#5B6B7B" text-anchor="end">OutcomeWriteback</text>
<text x="870" y="625" font-size="12.5" fill="#1C2733"><tspan font-weight="700" fill="#C8881E">case_outcomes</tspan> &#8592; fact_case_outcomes  &#183;  <tspan font-weight="600">writeback_api</tspan> INSERT-only</text>
<text x="870" y="643" font-size="11" font-style="italic" fill="#A9761A">REST facade pending &#8212; Joget writes via JDBC in DEV</text>

<!-- ===== Tier 3 · bottom bands ===== -->
<rect x="40" y="684" width="720" height="252" rx="10" fill="#EEF3F8" stroke="#D7E2EC"/>
<text x="64" y="714" font-size="14" font-weight="700" fill="#0F2A43">Key semantics DMBB relies on</text>
<text x="64" y="742" font-size="12.5" fill="#1C2733"><tspan font-weight="700">Enforceable</tspan> = balance &#8722; open disputes   (BR-DM-008; disputes = silver_objections OPEN)</text>
<text x="64" y="767" font-size="12.5" fill="#1C2733"><tspan font-weight="700">C1&#8211;C6 banding</tspan> over consolidated owed per TIN — thresholds 30 / 100 / 1k / 20k / 200k</text>
<text x="64" y="792" font-size="12.5" fill="#1C2733"><tspan font-weight="700">Ageing</tspan> bands 0&#8211;29 / 30&#8211;89 / 90&#8211;179 / 180&#8211;364 / 365+ days (oldest due date)</text>
<text x="64" y="817" font-size="12.5" fill="#1C2733"><tspan font-weight="700">asa_confidence</tspan> surfaced per row — VERIFIED vs APPROXIMATED legacy mappings</text>
<text x="64" y="842" font-size="12.5" fill="#1C2733"><tspan font-weight="700">risk_score</tspan> NULL until SAS VIYA — mock_priority is the interim placeholder</text>
<text x="64" y="867" font-size="12.5" fill="#1C2733"><tspan font-weight="700">as_of</tspan> on every view drives the staleness display (INT-FR-004)</text>
<text x="64" y="900" font-size="11.5" font-style="italic" fill="#5B6B7B">DMBB consumes the contract only — it never reads silver or the legacy databases directly.</text>

<rect x="800" y="684" width="560" height="252" rx="10" fill="#0F2A43"/>
<text x="824" y="714" font-size="14" font-weight="700" fill="#FFFFFF">Access &amp; contract</text>
<text x="824" y="744" font-size="12.5" fill="#CADCFC"><tspan font-weight="700" fill="#FFFFFF">Endpoint</tspan>   jdbc:clickhouse://&#8230;:8123/sta_v1</text>
<text x="824" y="770" font-size="12.5" fill="#CADCFC"><tspan font-weight="700" fill="#FFFFFF">Read</tspan>   sta_reader / sta_reader_dev  &#183;  SELECT only</text>
<text x="824" y="796" font-size="12.5" fill="#CADCFC"><tspan font-weight="700" fill="#FFFFFF">Write</tspan>   writeback_api  &#183;  INSERT only on fact_case_outcomes</text>
<text x="824" y="822" font-size="12.5" fill="#CADCFC"><tspan font-weight="700" fill="#FFFFFF">Uses</tspan>   3 of 9 views read  +  1 view written</text>
<line x1="824" y1="840" x2="1336" y2="840" stroke="#2E6F95" stroke-width="1"/>
<text x="824" y="866" font-size="12" fill="#9FC0DC"><tspan font-weight="700" fill="#C8881E">Mock today:</tspan> sta_v1 is a synthetic ClickHouse</text>
<text x="824" y="888" font-size="12" fill="#9FC0DC">data product (300 taxpayers, deterministic seed).</text>
<text x="824" y="910" font-size="12" fill="#9FC0DC">The real STA replaces it behind the same contract —</text>
<text x="824" y="928" font-size="12" fill="#9FC0DC">DMBB code is unchanged.</text>
</svg>
